<svg width="48" height="49" viewBox="0 0 48 49" fill="none" xmlns="http://www.w3.org/2000/svg">
<path d="M16.4999 9.53641C18.8587 9.53641 21.161 10.2622 23.0936 11.6145C25.0259 12.9668 26.4955 14.8804 27.3036 17.096C28.1117 19.3119 28.2195 21.7233 27.6112 24.0022C27.0029 26.2811 25.7081 28.3178 23.9032 29.8362L23.2958 30.3479L24.0184 30.6751C26.9917 32.0206 29.5508 34.1377 31.4286 36.8069L31.4354 36.8167L31.4432 36.8264C31.589 37.0132 31.6953 37.2282 31.7557 37.4573C31.8162 37.6865 31.8296 37.9259 31.7948 38.1604C31.76 38.3949 31.6779 38.6198 31.5536 38.8216C31.4292 39.0234 31.265 39.1978 31.0712 39.3343C30.8773 39.4707 30.6576 39.5665 30.4257 39.6155C30.1938 39.6645 29.954 39.6667 29.7216 39.6204C29.4892 39.5741 29.2685 39.4801 29.0731 39.346C28.8778 39.2118 28.7115 39.0394 28.5848 38.8391L28.579 38.8294L28.5721 38.8196L28.3114 38.4602C26.984 36.6856 25.2724 35.2312 23.3026 34.2073C21.2014 33.1152 18.8679 32.5452 16.4999 32.5452C14.1319 32.5452 11.7983 33.1152 9.69714 34.2073C7.5961 35.2994 5.78925 36.8817 4.42859 38.8196L4.42761 38.8206C4.26766 39.0503 4.05386 39.2382 3.80554 39.3675C3.55736 39.4966 3.2816 39.5635 3.00183 39.5628H2.99792C2.63907 39.5639 2.28891 39.4521 1.99695 39.2434L1.995 39.2425L1.85828 39.135C1.55451 38.872 1.34853 38.511 1.27917 38.1116C1.19996 37.6551 1.30489 37.1851 1.57117 36.8059C3.44896 34.137 6.00823 32.0205 8.98132 30.6751L9.70398 30.3479L9.09656 29.8362C7.29172 28.3178 5.99686 26.2811 5.38855 24.0022C4.78027 21.7233 4.88805 19.3119 5.69617 17.096C6.50434 14.8801 7.9746 12.9668 9.9071 11.6145C11.8397 10.2622 14.1411 9.53643 16.4999 9.53641ZM28.6649 9.98367H28.6659L28.6747 9.98172C29.6848 9.69417 30.7299 9.54836 31.7802 9.55008H31.7831C34.1431 9.54331 36.4479 10.2645 38.3837 11.6145C40.3196 12.9647 41.7923 14.8788 42.6014 17.096C43.4105 19.3131 43.5164 21.7255 42.9052 24.0052C42.2939 26.2848 40.9953 28.3213 39.1854 29.8362L38.5751 30.347L39.2997 30.6751C42.273 32.0206 44.832 34.1377 46.7098 36.8069L46.7118 36.8098C46.8452 36.9965 46.94 37.2082 46.9911 37.4319C47.0421 37.6556 47.0489 37.8875 47.0096 38.1136C46.9704 38.3395 46.886 38.5551 46.7626 38.7483C46.6391 38.9417 46.4785 39.1088 46.2899 39.2395L46.2841 39.2434C45.992 39.4522 45.642 39.5629 45.2831 39.5618C45.0026 39.56 44.7262 39.493 44.4774 39.3636C44.2906 39.2663 44.1238 39.1361 43.9833 38.9807L43.8514 38.8177C42.4881 36.8837 40.6809 35.3047 38.5809 34.2141C36.4806 33.1235 34.1487 32.5527 31.7821 32.5501H31.7811C31.3171 32.5501 30.872 32.3664 30.5438 32.0384C30.2156 31.7102 30.0311 31.2642 30.0311 30.8001C30.0312 30.3361 30.2157 29.8909 30.5438 29.5628C30.872 29.2347 31.3171 29.0501 31.7811 29.0501C33.9029 29.0501 35.9381 28.2076 37.4384 26.7073C38.9386 25.207 39.7811 23.1717 39.7811 21.0501C39.781 18.9286 38.9384 16.894 37.4384 15.3938C35.9381 13.8935 33.9029 13.0501 31.7811 13.0501C31.05 13.0488 30.3221 13.1503 29.619 13.3509L29.6132 13.3528C29.3908 13.4191 29.1574 13.44 28.9266 13.4153C28.6959 13.3906 28.4727 13.3202 28.2694 13.2083C28.0661 13.0963 27.8864 12.9457 27.7421 12.7639C27.5978 12.5822 27.4915 12.3731 27.4286 12.1497C27.3657 11.9263 27.3476 11.6925 27.3759 11.4622C27.4042 11.2318 27.4785 11.0094 27.5936 10.8079C27.7087 10.6064 27.8627 10.4298 28.0468 10.2884C28.2307 10.147 28.4407 10.0431 28.6649 9.98367ZM18.0604 13.2044C16.5086 12.8958 14.9001 13.054 13.4384 13.6595C11.9767 14.2649 10.7275 15.2903 9.84851 16.6057C8.96953 17.9212 8.49996 19.468 8.49988 21.0501C8.49988 23.1717 9.34252 25.207 10.8427 26.7073C12.3429 28.2076 14.3782 29.0501 16.4999 29.0501C18.082 29.0501 19.6287 28.5813 20.9442 27.7024C22.2598 26.8234 23.286 25.5734 23.8915 24.1116C24.4968 22.6499 24.6552 21.0412 24.3466 19.4895C24.0379 17.9379 23.2758 16.5126 22.1571 15.3938C21.0383 14.275 19.6123 13.5131 18.0604 13.2044Z" fill="#4CAF4F" stroke="#4CAF4F"/>
</svg>
